<svg id="Grupo_19297" data-name="Grupo 19297" xmlns="http://www.w3.org/2000/svg" width="32" height="32" viewBox="0 0 32 32">
  <rect id="Rectángulo_6302" data-name="Rectángulo 6302" width="32" height="32" fill="none"/>
  <g id="Grupo_19296" data-name="Grupo 19296" transform="translate(1.451 2.371)">
    <path id="Trazado_10914" data-name="Trazado 10914" d="M378.819,196.935a.819.819,0,0,1-.837.394c-.263-.017-.528,0-.793,0-.412-.011-.66-.236-.654-.583s.248-.546.652-.552c.283,0,.567.015.849,0a.736.736,0,0,1,.783.41Z" transform="translate(-349.72 -182.21)" fill="#dd141d"/>
    <path id="Trazado_10915" data-name="Trazado 10915" d="M54.51,115.678c2.254,0,4.509.008,6.763-.005a1.541,1.541,0,0,1,1.417.767c.983,1.538,1.982,3.065,2.973,4.6a1.351,1.351,0,0,1-.143,1.857q-4.959,5.571-9.922,11.138a1.345,1.345,0,0,1-2.233,0Q48.4,128.468,43.443,122.9a1.354,1.354,0,0,1-.131-1.88c.984-1.515,1.976-3.023,2.948-4.546a1.58,1.58,0,0,1,1.458-.8c2.264.016,4.528.006,6.792.006M64.3,122.55c-1.9,0-3.741,0-5.577,0-.187,0-.178.13-.211.239q-1.081,3.5-2.16,7.01-.38,1.232-.761,2.463l.042.023L64.3,122.55M53.32,132.275a.237.237,0,0,0-.007-.19q-1.438-4.668-2.87-9.339c-.054-.176-.146-.2-.3-.2-1.743,0-3.485,0-5.228.005-.066,0-.151-.043-.206.05l8.615,9.672m1.148-.3a1.055,1.055,0,0,0,.061-.11q1.4-4.543,2.8-9.086c.064-.207.014-.229-.174-.228-1.457.006-2.915,0-4.372,0H51.566l2.9,9.42M47.1,117.283l-2.668,4.107h5.325L47.1,117.283M64.543,121.4l-2.664-4.116L59.218,121.4Zm-9.036-4.582,2.661,4.111,2.657-4.111Zm-4.7,4.1,2.639-4.083H48.16l2.643,4.083m6.315.484c-.847-1.309-1.671-2.575-2.484-3.849-.125-.2-.173-.21-.3,0-.772,1.211-1.558,2.414-2.336,3.621-.043.067-.118.124-.105.231Z" transform="translate(-39.933 -107.435)" fill="#dd141d"/>
    <path id="Trazado_10916" data-name="Trazado 10916" d="M197.528,2.428c0,.578,0,1.156,0,1.733,0,.412-.232.676-.571.669a.593.593,0,0,1-.564-.656q-.01-1.762,0-3.524a.583.583,0,0,1,.592-.65c.337.012.539.255.542.666,0,.587,0,1.175,0,1.762" transform="translate(-182.402 0)" fill="#dd141d"/>
    <path id="Trazado_10917" data-name="Trazado 10917" d="M311.794,58.032a.683.683,0,0,1-.233.492c-.581.582-1.159,1.166-1.745,1.743a.574.574,0,1,1-.813-.794c.583-.593,1.174-1.179,1.763-1.765a.58.58,0,0,1,.692-.17.548.548,0,0,1,.335.493" transform="translate(-286.788 -53.391)" fill="#dd141d"/>
    <path id="Trazado_10918" data-name="Trazado 10918" d="M58.338,57.426a.578.578,0,0,1,.431.207c.6.593,1.193,1.186,1.784,1.785a.581.581,0,0,1,.05.856.564.564,0,0,1-.835-.041c-.614-.6-1.22-1.212-1.825-1.824a.556.556,0,0,1-.136-.648.536.536,0,0,1,.532-.335" transform="translate(-53.641 -53.335)" fill="#dd141d"/>
    <path id="Trazado_10919" data-name="Trazado 10919" d="M1.161,196.3c.2,0,.4-.012.6,0a.54.54,0,0,1,.52.5.509.509,0,0,1-.446.589,4.579,4.579,0,0,1-1.381,0A.535.535,0,0,1,0,196.832a.555.555,0,0,1,.508-.522c.216-.018.434,0,.652,0v0" transform="translate(0 -182.32)" fill="#dd141d"/>
    <path id="Trazado_10920" data-name="Trazado 10920" d="M197.112,80.152a.592.592,0,0,1-.578-.547.575.575,0,0,1,.538-.58.559.559,0,0,1,.587.554.579.579,0,0,1-.546.574" transform="translate(-182.536 -73.396)" fill="#dd141d"/>
  </g>
</svg>
