<svg xmlns="http://www.w3.org/2000/svg" width="24" height="24" viewBox="0 0 24 24">
  <g id="Grupo_15202" data-name="Grupo 15202" transform="translate(-2887.001 -159.7)">
    <g id="Grupo_15206" data-name="Grupo 15206">
      <g id="Grupo_15202-2" data-name="Grupo 15202">
        <path id="Trazado_8283" data-name="Trazado 8283" d="M2898.925,162.705a.689.689,0,1,1-.689.69.7.7,0,0,1,.689-.69m0-1a1.689,1.689,0,1,0,1.69,1.69,1.694,1.694,0,0,0-1.69-1.69Z" fill="#575757"/>
      </g>
      <g id="Grupo_15204" data-name="Grupo 15204">
        <g id="Grupo_15203" data-name="Grupo 15203">
          <path id="Trazado_8284" data-name="Trazado 8284" d="M2897.7,180.371c.435.018.889.027,1.373.027h.2c.266,0,.534,0,.807-.011a1.452,1.452,0,0,1-1.189.579,1.433,1.433,0,0,1-1.194-.6m-.928-.818a1.648,1.648,0,0,0-.022.2,2.153,2.153,0,0,0,4.289,0c0-.053-.013-.1-.017-.155-.568.032-1.148.051-1.746.051h-.2c-.656,0-1.3-.017-1.916-.057-.125-.01-.256-.025-.385-.038Z" fill="#575757"/>
        </g>
      </g>
      <g id="Grupo_15205" data-name="Grupo 15205">
        <path id="Trazado_8285" data-name="Trazado 8285" d="M2898.819,180.334c-.681,0-1.3-.02-1.887-.062-2.364-.21-3.925-.766-4.649-1.652a2.048,2.048,0,0,1-.445-1.644,4.287,4.287,0,0,1,.828-1.728,5.69,5.69,0,0,0,1.059-3.305v-2.5a5.369,5.369,0,0,1,3.759-5.164,6.321,6.321,0,0,1,1.44-.123,6.475,6.475,0,0,1,1.418.117,5.375,5.375,0,0,1,3.782,5.17v2.5a5.686,5.686,0,0,0,1.057,3.3,4.289,4.289,0,0,1,.829,1.729h0a2.053,2.053,0,0,1-.441,1.641c-.728.891-2.29,1.447-4.643,1.656-.625.044-1.28.069-2,.062Zm.1-15.176a5.879,5.879,0,0,0-1.181.089,4.357,4.357,0,0,0-3.018,4.2v2.5a6.707,6.707,0,0,1-1.246,3.888,3.417,3.417,0,0,0-.654,1.3,1.056,1.056,0,0,0,.235.857c.529.648,1.933,1.1,3.951,1.285.583.041,1.2.061,1.912.058s1.332-.017,1.924-.059c2.007-.179,3.412-.636,3.945-1.288a1.054,1.054,0,0,0,.229-.854h0a3.4,3.4,0,0,0-.653-1.3,6.694,6.694,0,0,1-1.244-3.886v-2.5a4.363,4.363,0,0,0-3.043-4.205h0A6.273,6.273,0,0,0,2898.924,165.158Z" fill="#575757"/>
      </g>
    </g>
    <g id="Grupo_15209" data-name="Grupo 15209">
      <g id="Grupo_15207" data-name="Grupo 15207" transform="translate(0 10)">
        <circle id="Elipse_720" data-name="Elipse 720" cx="3.5" cy="3.5" r="3.5" transform="translate(2901.034 164.657)" fill="#dd141d"/>
        <path id="Trazado_8286" data-name="Trazado 8286" d="M2904.535,165.158a3,3,0,1,1-3,3,3,3,0,0,1,3-3m0-1a4,4,0,1,0,4,4,4,4,0,0,0-4-4Z" fill="#dd141d"/>
      </g>
    </g>
    <rect id="Rectángulo_4919" data-name="Rectángulo 4919" width="24" height="24" transform="translate(2887.001 159.7)" fill="none"/>
  </g>
</svg>
