<svg id="Grupo_17906" data-name="Grupo 17906" xmlns="http://www.w3.org/2000/svg" width="30.692" height="30.692" viewBox="0 0 30.692 30.692">
  <g id="Grupo_7870" data-name="Grupo 7870">
    <g id="Grupo_7368" data-name="Grupo 7368" transform="translate(5.48 10.962)">
      <g id="Grupo_7368-2" data-name="Grupo 7368">
        <path id="Trazado_3219" data-name="Trazado 3219" d="M211.414,99.849c-.144.781-.275,1.672-.493,2.541-.06.237-.384.408-.587.609a2.129,2.129,0,0,1-.189-.772c.386-2.395.8-4.785,1.217-7.175a2.737,2.737,0,0,1,2.762-2.409c.49-.019.983-.035,1.473-.011a1.839,1.839,0,0,1,1.853,2.255q-.234,1.452-.55,2.89A2.645,2.645,0,0,1,214.09,100C213.232,100,212.374,99.907,211.414,99.849Zm3.219-6.19c-1.587-.035-2.106.238-2.338,1.3-.209.954-.375,1.919-.53,2.883-.092.572.094,1.123.7,1.189a8.7,8.7,0,0,0,2.5-.062,1.464,1.464,0,0,0,.911-.925,26.949,26.949,0,0,0,.563-3.367.851.851,0,0,0-.906-1.011C215.231,93.643,214.932,93.659,214.633,93.659Z" transform="translate(-210.139 -92.585)" fill="#dd141d" stroke="#dd141d" stroke-width="0.2"/>
        <path id="Trazado_3220" data-name="Trazado 3220" d="M294.9,99.827c-.491,0-.984.028-1.473-.006a1.772,1.772,0,0,1-1.743-2.105,18.291,18.291,0,0,1,.57-3.13,3.21,3.21,0,0,1,1.2-1.648,4.481,4.481,0,0,1,3.869-.18,1.569,1.569,0,0,1,.957,1.812c-.042.432-.186.855-.228,1.287-.057.579-.341.789-.915.776-1.172-.026-2.35.067-3.517-.019-.914-.068-1.037.422-1.074,1.112-.039.724.285,1.181,1,1.227.87.055,1.745.022,2.617.027a2.337,2.337,0,0,1,.65.019,1.68,1.68,0,0,1,.46.345c-.139.144-.27.4-.419.412-.651.046-1.306.02-1.96.02Zm-1.943-4.061c1.33,0,2.609.009,3.887-.012a.546.546,0,0,0,.426-.261c.321-1.154.339-2.17-1.335-2.136-.218,0-.437,0-.655,0C293.6,93.374,293.088,93.876,292.962,95.766Z" transform="translate(-278.241 -92.408)" fill="#dd141d" stroke="#dd141d" stroke-width="0.2"/>
        <path id="Trazado_3221" data-name="Trazado 3221" d="M254.433,99.935a15.059,15.059,0,0,1-1.553-.017c-.219-.023-.419-.234-.627-.359.205-.166.4-.463.617-.474.979-.053,1.963-.031,2.945-.025a1.581,1.581,0,0,0,1.517-.779,1,1,0,0,0-.871-1.605c-.545-.023-1.091,0-1.637-.006a1.791,1.791,0,0,1-1.7-.928,1.882,1.882,0,0,1,.18-2.012,2.4,2.4,0,0,1,1.958-1.179c.979-.049,1.964-.025,2.944.022.214.01.417.254.626.391-.2.181-.394.5-.609.52-.95.076-1.911.022-2.859.106a1.829,1.829,0,0,0-1.134.482,1.379,1.379,0,0,0-.205,1.119c.066.24.508.483.811.529a15.026,15.026,0,0,0,1.8.052,1.713,1.713,0,0,1,1.64,2.436,2.593,2.593,0,0,1-2.361,1.725C255.416,99.953,254.924,99.936,254.433,99.935Z" transform="translate(-245.317 -92.505)" fill="#dd141d" stroke="#dd141d" stroke-width="0.2"/>
      </g>
    </g>
    <g id="Trazado_10605" data-name="Trazado 10605" fill="none">
      <path d="M15.346,0A15.346,15.346,0,1,1,0,15.346,15.346,15.346,0,0,1,15.346,0Z" stroke="none"/>
      <path d="M 15.34617233276367 1.500003814697266 C 11.6477222442627 1.500003814697266 8.170642852783203 2.940254211425781 5.555452346801758 5.555442810058594 C 2.940252304077148 8.170633316040039 1.500001907348633 11.64771270751953 1.500001907348633 15.34615325927734 C 1.500001907348633 19.04459381103516 2.940252304077148 22.52166366577148 5.555452346801758 25.1368522644043 C 8.170642852783203 27.75205230712891 11.6477222442627 29.19230270385742 15.34617233276367 29.19230270385742 C 19.04462242126465 29.19230270385742 22.52170181274414 27.75205230712891 25.13689231872559 25.1368522644043 C 27.7520923614502 22.52166366577148 29.19234275817871 19.04459381103516 29.19234275817871 15.34615325927734 C 29.19234275817871 11.64771270751953 27.7520923614502 8.170633316040039 25.13689231872559 5.555442810058594 C 22.52170181274414 2.940254211425781 19.04462242126465 1.500003814697266 15.34617233276367 1.500003814697266 M 15.34617233276367 3.814697265625e-06 C 23.82163238525391 3.814697265625e-06 30.69234275817871 6.870702743530273 30.69234275817871 15.34615325927734 C 30.69234275817871 23.82159423828125 23.82163238525391 30.69230270385742 15.34617233276367 30.69230270385742 C 6.870712280273438 30.69230270385742 1.9073486328125e-06 23.82159423828125 1.9073486328125e-06 15.34615325927734 C 1.9073486328125e-06 6.870702743530273 6.870712280273438 3.814697265625e-06 15.34617233276367 3.814697265625e-06 Z" stroke="none" fill="#dd141d"/>
    </g>
  </g>
</svg>
