<svg xmlns="http://www.w3.org/2000/svg" width="31.585" height="31.585" viewBox="0 0 31.585 31.585">
  <g id="Grupo_17913" data-name="Grupo 17913" transform="translate(-121.043 -155.7)">
    <g id="Grupo_17911" data-name="Grupo 17911">
      <g id="Grupo_17910" data-name="Grupo 17910">
        <path id="Trazado_10628" data-name="Trazado 10628" d="M133.786,172.012a1.206,1.206,0,0,0,1.522.346,1.172,1.172,0,0,0,.742-1.466.837.837,0,0,0-.391-.527,1.485,1.485,0,0,0-.175-.076,1.145,1.145,0,0,0-.2-.04c-.4,0-1.291.177-1.686.2a.954.954,0,0,1-.185,0,2.441,2.441,0,0,1-.234-.112.764.764,0,0,1-.329-.424,1.212,1.212,0,0,1,.726-1.545,1.252,1.252,0,0,1,1.522.337" fill="none" stroke="#fff" stroke-linecap="round" stroke-linejoin="round" stroke-width="0.75"/>
        <line id="Línea_462" data-name="Línea 462" x1="0.145" y1="0.333" transform="translate(133.33 167.817)" fill="none" stroke="#fff" stroke-linecap="round" stroke-linejoin="round" stroke-width="0.75"/>
        <line id="Línea_463" data-name="Línea 463" x1="0.145" y1="0.333" transform="translate(135.402 172.577)" fill="none" stroke="#fff" stroke-linecap="round" stroke-linejoin="round" stroke-width="0.75"/>
      </g>
    </g>
    <g id="Grupo_17912" data-name="Grupo 17912">
      <path id="Trazado_10629" data-name="Trazado 10629" d="M139.676,175.119c.844,1.218.8,1.389,1.317,2.036a1.078,1.078,0,0,0,1.239.308c1.377-.609,4.458-1.94,4.458-1.94.875-.381.808-1.024.466-1.809-.526-1.209-1.19-3.338-1.552-4.207a3.955,3.955,0,0,0-.818-1.126,9.06,9.06,0,0,0-2.441-1.754l-2.278-1.085-.649-.218" fill="none" stroke="#fff" stroke-linecap="round" stroke-linejoin="round" stroke-width="0.75"/>
      <path id="Trazado_10630" data-name="Trazado 10630" d="M143.014,170.34l-4.836-2.137a1.037,1.037,0,0,0-1.407.691c-.191.707.335,1.068.789,1.372s3.283,1.864,3.283,1.864a9.515,9.515,0,0,0,.373,1.416,5.143,5.143,0,0,0,1.456,2.078" fill="none" stroke="#fff" stroke-linecap="round" stroke-linejoin="round" stroke-width="0.75"/>
    </g>
    <g id="Trazado_10631" data-name="Trazado 10631" fill="none" stroke-linecap="round" stroke-linejoin="round">
      <path d="M137.268,168.99c-.078.322.01.485.468.794s2.706,1.708,2.706,1.708a1.431,1.431,0,0,1,.763,1.864,6.339,6.339,0,0,1-.831,1.435,3.934,3.934,0,0,1-.476.577,7.17,7.17,0,0,1-2.5,1.793,7.413,7.413,0,1,1,2.531-11.774,7.393,7.393,0,0,1,1.9,4.393l-.706.134-3.136-1.238S137.387,168.5,137.268,168.99Z" stroke="none"/>
      <path d="M 134.4358062744141 163.6997680664062 C 133.5202026367188 163.6997680664062 132.62646484375 163.8867797851562 131.7793731689453 164.2556610107422 C 130.1455078125 164.9669342041016 128.8871765136719 166.2700042724609 128.2361907958984 167.9248199462891 C 127.5851898193359 169.5796203613281 127.6183776855469 171.3907775878906 128.3296051025391 173.0245208740234 C 129.3891143798828 175.4571075439453 131.7889862060547 177.0289459228516 134.4435272216797 177.0289459228516 C 135.3584442138672 177.0289459228516 136.2517547607422 176.8420104980469 137.0986633300781 176.4733123779297 C 137.9730529785156 176.0927124023438 138.7267913818359 175.5526275634766 139.3389129638672 174.8680725097656 C 139.3458709716797 174.8602905273438 139.3529968261719 174.8526611328125 139.3602752685547 174.8451690673828 C 139.5316925048828 174.6688537597656 139.6511840820312 174.52490234375 139.7476654052734 174.37841796875 C 139.75732421875 174.36376953125 139.7674865722656 174.3494567871094 139.7781524658203 174.3355102539062 C 140.0821838378906 173.9378051757812 140.3270874023438 173.5165252685547 140.5062408447266 173.0831756591797 C 140.6336669921875 172.7336883544922 140.5463714599609 172.5532684326172 140.4556427001953 172.4349822998047 C 140.3375244140625 172.2809906005859 140.1716003417969 172.1942443847656 140.1420288085938 172.1795806884766 C 140.1024627685547 172.1636962890625 140.0817260742188 172.1512908935547 140.044189453125 172.1278076171875 C 139.9519348144531 172.0700988769531 137.779541015625 170.7107086181641 137.323486328125 170.4103698730469 C 137.3211517333984 170.4088287353516 137.3188323974609 170.4072875976562 137.3165283203125 170.4057312011719 C 136.9671173095703 170.1699981689453 136.3167419433594 169.731201171875 136.5390167236328 168.813720703125 C 136.6761169433594 168.2467956542969 137.1402740478516 167.8946228027344 137.7504425048828 167.8946228027344 C 137.9734344482422 167.8946380615234 138.1515960693359 167.9422607421875 138.2008819580078 167.9568481445312 C 138.2220458984375 167.9631042480469 138.2429046630859 167.9702911376953 138.2634124755859 167.9783782958984 L 140.9744567871094 169.0486450195312 C 140.8828430175781 168.5955810546875 140.7403869628906 168.1458282470703 140.5483703613281 167.7044372558594 C 140.2563018798828 167.0337524414062 139.8617706298828 166.4244079589844 139.375732421875 165.8933410644531 C 139.3745574951172 165.8920593261719 139.3733825683594 165.8907775878906 139.3722229003906 165.8894805908203 C 138.1163177490234 164.4978790283203 136.3170623779297 163.6997528076172 134.4358062744141 163.6997680664062 M 134.4358062744141 162.9497680664062 C 136.5153198242188 162.9497528076172 138.5238037109375 163.8299560546875 139.9290008544922 165.3869934082031 C 140.4579925537109 165.9649963378906 140.9019927978516 166.6380004882812 141.2359924316406 167.4049987792969 C 141.5740051269531 168.1820068359375 141.7730102539062 168.9850006103516 141.8300018310547 169.7799987792969 L 141.1239929199219 169.9140014648438 L 137.9880065917969 168.6759948730469 C 137.9880218505859 168.6760101318359 137.3870086669922 168.4980010986328 137.2680053710938 168.9900054931641 C 137.1900024414062 169.3119964599609 137.2779998779297 169.4750061035156 137.7359924316406 169.7839965820312 C 138.1900024414062 170.0829925537109 140.4420013427734 171.4920043945312 140.4420013427734 171.4920043945312 C 140.4420013427734 171.4920043945312 141.6999969482422 172.0299987792969 141.2050018310547 173.3560028076172 C 140.9920043945312 173.875 140.7050018310547 174.3580017089844 140.3739929199219 174.7910003662109 C 140.2350006103516 175.0019989013672 140.072998046875 175.1880035400391 139.8980102539062 175.3679962158203 C 139.2220001220703 176.1239929199219 138.3789978027344 176.7339935302734 137.3979949951172 177.1609954833984 C 133.6400451660156 178.7969970703125 129.2740173339844 177.0709991455078 127.6419982910156 173.3240051269531 C 126.0059967041016 169.5659942626953 127.7220001220703 165.2039947509766 131.4799957275391 163.5679931640625 C 132.4432067871094 163.1485595703125 133.4475402832031 162.9497680664062 134.4358062744141 162.9497680664062 Z" stroke="none" fill="#fff"/>
    </g>
    <rect id="Rectángulo_5780" data-name="Rectángulo 5780" width="24" height="24" transform="translate(121.043 165.28) rotate(-23.528)" fill="none"/>
  </g>
</svg>
