<svg xmlns="http://www.w3.org/2000/svg" width="24" height="24" viewBox="0 0 24 24">
  <g id="Icono_24Abrir_Productos" data-name="Icono_24Abrir Productos" transform="translate(12 12)">
    <g id="Icono_24Abrir_Productos-2" data-name="Icono_24Abrir Productos" transform="translate(-12 -12)">
      <g id="Borde">
        <path id="Trazado_8104" data-name="Trazado 8104" d="M19.49,12.14a4.92,4.92,0,0,1-.25-.91h.45c1.58,0,2.16-.61,2.36-1.11A2.17,2.17,0,0,0,21.71,8a3.76,3.76,0,0,0-.7-.75L19.2,5.93a7.7,7.7,0,0,1,.31-1.7.94.94,0,0,0,0-.64c-.31-.86-1.35-.86-1.79-.86h-.2L17,2.7h0a1.55,1.55,0,0,0-1.26.49l-.06.09a1.66,1.66,0,0,0-.13.27,10.9,10.9,0,0,0-3.54-1.38H12C11,2.17,8.68,3.33,7.4,4l-.09.06L4.89,5.73,2.82,7.28A3.63,3.63,0,0,0,2.11,8a2.2,2.2,0,0,0-.34,2.08c.21.53.78,1.12,2.35,1.12H4.6a4.74,4.74,0,0,1-1,2.28A3.25,3.25,0,0,0,3,17.2a4.29,4.29,0,0,0,3.9,2.92h.34a6.51,6.51,0,0,0,1.92-.28,7.46,7.46,0,0,0,2.73.53H12a7,7,0,0,0,2.69-.53,6.56,6.56,0,0,0,1.92.28H17a4,4,0,0,0,1.1-.2,2.85,2.85,0,0,0,.29,0,4,4,0,0,0,1.14-7.81Zm-4.66,6.7h-.16a.52.52,0,0,0-.21,0,6.1,6.1,0,0,1-2.46.52h-.12a6.41,6.41,0,0,1-2.51-.52.51.51,0,0,0-.2,0H9a5.36,5.36,0,0,1-1.78.29H6.91a3.32,3.32,0,0,1-3-2.31,2.24,2.24,0,0,1,.41-2.63A5.75,5.75,0,0,0,5.66,10.7a.54.54,0,0,0-.17-.4.53.53,0,0,0-.34-.13H5.07a6.55,6.55,0,0,1-1,.07c-.76,0-1.29-.16-1.41-.45a1.18,1.18,0,0,1,.21-1.16,2.64,2.64,0,0,1,.5-.55l2-1.53L7.87,4.9A14.66,14.66,0,0,1,12,3.17h0a13.39,13.39,0,0,1,3.74,1.64.57.57,0,0,0,.25.06.52.52,0,0,0,.32-.11.51.51,0,0,0,.17-.54.56.56,0,0,1,0-.41c.07-.09.26-.11.47-.11h.67c.19,0,.78,0,.85.2a8,8,0,0,0-.37,2.22.48.48,0,0,0,.2.42l2,1.5a3.46,3.46,0,0,1,.55.59,1.18,1.18,0,0,1,.19,1.11c-.13.33-.73.48-1.43.48a5.82,5.82,0,0,1-.92-.08h-.08a.51.51,0,0,0-.34.13.54.54,0,0,0-.17.4A6.13,6.13,0,0,0,18.39,12h0a3.982,3.982,0,0,0-2.47,7.12A4.69,4.69,0,0,1,14.83,18.84Zm5.35-2.51H18.73v1.45a.38.38,0,0,1-.38.37.37.37,0,0,1-.37-.37V16.33H16.53a.38.38,0,1,1,0-.75H18V14.13a.37.37,0,0,1,.37-.38.38.38,0,0,1,.38.38v1.45H20.2a.38.38,0,0,1,0,.75Z" fill="#fff"/>
        <rect id="Rectángulo_4624" data-name="Rectángulo 4624" width="24" height="24" fill="none"/>
      </g>
    </g>
  </g>
</svg>
